<svg width="64" height="64" viewBox="0 0 64 64" fill="none" xmlns="http://www.w3.org/2000/svg">
<path d="M7.12167 3.24789C8.20012 2.95632 9.33692 3.022 10.4447 3C25.4856 3.05835 40.5339 2.96365 55.5749 3.05101C57.7464 2.98549 59.7286 4.9095 59.6411 7.09573C59.6776 12.1242 59.7286 17.16 59.6192 22.1885C59.6703 23.2744 58.3659 24.025 57.404 23.6387C56.3109 23.4638 56.2964 22.0791 55.8809 21.2848C54.4381 16.2781 50.1458 11.7379 44.7387 11.41C42.3047 11.3298 39.7979 11.0603 37.4076 11.5922C36.1834 11.9202 36.198 13.3559 36.1761 14.3616C36.1906 26.0292 36.1469 37.7039 36.198 49.3788C36.1614 53.9628 40.1332 57.8981 44.6512 58.1385C46.4803 57.6794 47.4131 60.6455 45.4164 60.8933C36.6644 61.0755 27.8904 60.9516 19.1312 60.9589C17.6518 61.3087 16.7117 59.3338 17.8923 58.4593C19.6339 57.9492 21.5505 57.971 23.1537 57.0454C25.9229 55.5442 27.8029 52.5197 27.8029 49.3569C27.8468 37.7039 27.8103 26.0583 27.8249 14.4126C27.9633 13.1081 27.5115 11.4174 25.9083 11.4027C21.8274 11.257 17.2875 10.8489 13.7531 13.3412C10.5321 15.5058 8.69575 19.062 7.61714 22.6841C7.17269 24.4257 4.16307 23.8793 4.35979 22.0646C4.2796 17.1163 4.32328 12.1534 4.34528 7.20509C4.30144 5.46331 5.4529 3.77987 7.12167 3.24789Z" fill="url(#paint0_linear_1012_694)"/>
<defs>
<linearGradient id="paint0_linear_1012_694" x1="31.9995" y1="61" x2="31.9995" y2="3" gradientUnits="userSpaceOnUse">
<stop stop-color="#A93AFF"/>
<stop offset="1" stop-color="#FF81FF"/>
</linearGradient>
</defs>
</svg>
