<?xml version="1.0" encoding="UTF-8" standalone="no"?>
<svg
   width="48"
   height="48"
   viewBox="0 0 48 48"
   fill="none"
   version="1.1"
   id="svg8"
   sodipodi:docname="mouse.svg"
   inkscape:version="1.3.2 (091e20e, 2023-11-25, custom)"
   xmlns:inkscape="http://www.inkscape.org/namespaces/inkscape"
   xmlns:sodipodi="http://sodipodi.sourceforge.net/DTD/sodipodi-0.dtd"
   xmlns="http://www.w3.org/2000/svg"
   xmlns:svg="http://www.w3.org/2000/svg">
  <sodipodi:namedview
     id="namedview8"
     pagecolor="#ffffff"
     bordercolor="#000000"
     borderopacity="0.25"
     inkscape:showpageshadow="2"
     inkscape:pageopacity="0.0"
     inkscape:pagecheckerboard="0"
     inkscape:deskcolor="#d1d1d1"
     inkscape:zoom="24.604167"
     inkscape:cx="23.979678"
     inkscape:cy="24"
     inkscape:window-width="2560"
     inkscape:window-height="1377"
     inkscape:window-x="-8"
     inkscape:window-y="-8"
     inkscape:window-maximized="1"
     inkscape:current-layer="svg8"
     showgrid="false" />
  <path
     d="m 0.99192604,11.159018 c -0.0919347,0.180148 -0.18385495,0.359039 -0.27206904,0.539188 1.3975917,0.77654 5.4251559,2.800275 7.3369959,3.998932 2.4163401,1.479654 5.6822331,4.4984 5.9394481,5.006536 -2.51313,4.376573 -1.372795,8.250185 -1.669592,8.662513 -0.213717,0.344212 -2.188916,2.513267 -1.552943,2.833703 0.631079,0.315679 1.634905,-0.180007 1.786521,-0.277075 0.315539,-0.193716 0.64101,-0.475687 0.504361,0.08208 -0.267147,1.140474 -1.479653,3.882144 0.193714,3.2996 0.203786,-0.116929 2.897062,-3.085884 3.222533,-3.187845 5.35802,1.39755 11.351034,0.756538 12.460319,0.237352 0.577652,0.03847 2.212554,1.067046 3.144207,1.557838 0.931794,0.485757 3.469819,1.703158 2.718174,-0.509396 -0.233438,-0.699473 -1.90191,-2.484594 -1.631127,-2.601384 0.596251,-0.237216 2.072127,0.616116 2.639986,0.776402 1.698125,0.475828 1.926667,-0.183786 0.854586,-1.634904 -1.058372,-1.450978 -1.217401,-1.227331 -1.5528,-1.896874 -0.262251,-0.539188 0,-1.135441 0.193715,-1.280761 0.344212,-0.262251 5.415226,-3.077211 6.604096,-4.154326 1.761621,-1.601337 0,-3.600176 -0.432331,-3.882143 -3.653604,-2.630059 -7.405252,-2.067234 -7.453787,-2.484737 -0.0249,-0.475686 -0.01497,-1.84848 -0.07832,-2.324306 -0.363935,-3.222534 -1.853376,-2.411306 -2.057163,-2.411306 -1.48958,0.233576 -0.941721,2.513267 -0.310644,4.658685 0.04853,0.547858 -0.519186,0.30561 -0.854727,-0.27204 -1.14523,-3.072313 -1.626092,-3.018883 -1.941632,-3.110776 -0.305609,-0.06826 -1.382725,0.587581 -1.364121,1.82988 0.0051,0.354143 0.427433,2.043735 0.427433,2.562921 -0.703112,0.616252 -0.737938,2.013802 -1.475877,2.523197 -2.149193,0.445896 -7.313357,-1.06215 -7.958144,-1.130544 -2.232415,-0.417503 -3.207707,1.257122 -3.566606,0.854587 C 11.948928,16.104707 7.5227013,13.639973 5.6058266,13.212679 4.8629936,13.052396 2.3547327,11.945491 1.4515705,11.387701 1.3062211,11.300703 1.1409961,11.237343 0.98073677,11.154122 Z M 33.290514,18.884985 c 0.02476,-0.02491 0.05344,0.0099 0.08197,0.03847 0.213713,0.708144 0.451067,1.382723 1.858548,1.55294 0.165183,0.01985 -0.781433,0.572618 -1.431116,0.233439 -0.592616,-0.35904 -0.646047,-1.664556 -0.509397,-1.824842 z m 3.649826,3.566605 c 0.130496,-0.01985 0.223649,-0.01482 0.31554,0 0.344213,0.087 -2.496902,1.567905 -2.718034,1.364122 -0.135528,-0.130496 1.5142,-1.1988 2.407529,-1.364122 z m 0.742972,0.936689 c 0.295541,0.02489 -1.644833,2.033662 -1.863585,1.824982 -0.160147,-0.145322 1.257262,-1.873377 1.863585,-1.824982 z"
     fill="url(#paint2_linear)"
     id="path3"
     style="fill:url(#paint2_linear);stroke-width:1.39867" />
  <defs
     id="defs8">
    <linearGradient
       id="paint0_linear"
       x1="6"
       y1="42"
       x2="48.6148"
       y2="22.3335"
       gradientUnits="userSpaceOnUse">
      <stop
         stop-color="#0357D1"
         id="stop3" />
      <stop
         offset="1"
         stop-color="#27CDFC"
         id="stop4" />
    </linearGradient>
    <linearGradient
       id="paint1_linear"
       x1="5.36364"
       y1="8"
       x2="43.0909"
       y2="8"
       gradientUnits="userSpaceOnUse">
      <stop
         stop-color="#FD5900"
         id="stop5" />
      <stop
         offset="1"
         stop-color="#FFDE00"
         id="stop6" />
    </linearGradient>
    <linearGradient
       id="paint2_linear"
       x1="23"
       y1="35.3241"
       x2="23"
       y2="18"
       gradientUnits="userSpaceOnUse"
       gradientTransform="matrix(1.3986688,0,0,1.3986688,-10.469492,-14.021914)">
      <stop
         stop-color="#5570FF"
         id="stop7" />
      <stop
         offset="1"
         stop-color="#4DD3FF"
         id="stop8" />
    </linearGradient>
  </defs>
</svg>
