<svg width="32" height="32" viewBox="0 0 32 32" fill="none" xmlns="http://www.w3.org/2000/svg">
<path fill-rule="evenodd" clip-rule="evenodd" d="M10.2949 1.0394C9.51695 0.85324 8.92996 1.34107 8.68685 1.88301C8.44907 2.41311 8.45912 3.16514 9.01642 3.65381C9.03667 3.67157 9.05832 3.68766 9.08117 3.70193C9.4451 3.92927 9.48762 4.50621 9.11855 4.72511C8.23702 5.24798 7.39504 5.85757 6.66097 6.61147C4.32959 8.96667 2.83421 12.2465 2.90578 15.6204L2.90619 15.6322C2.90724 15.6559 2.90811 15.6835 2.90907 15.7142C2.9129 15.837 2.91824 16.0082 2.94355 16.1642C2.97779 16.375 3.05601 16.6301 3.25868 16.8498L3.25971 16.8509C3.60729 17.2254 4.10231 17.3528 4.54293 17.3082C4.98258 17.2638 5.43779 17.0419 5.7099 16.6252L5.72361 16.6041L5.73516 16.5819C5.85145 16.3575 5.88783 16.1299 5.90369 15.9469C5.91137 15.8583 5.91482 15.7707 5.91774 15.6967L5.91802 15.6895C5.92117 15.6096 5.92386 15.5449 5.92937 15.484L5.93077 15.4685L5.9312 15.453C5.97985 13.7157 6.52393 11.9944 7.45855 10.5241L7.46022 10.5215C8.91585 8.19962 11.3713 6.50845 14.0747 6.07595L14.0869 6.07384C14.3637 6.02253 14.6251 6.00027 14.9114 5.97589C15.0782 5.96168 15.2535 5.94676 15.4453 5.92494C15.9308 5.86971 16.462 5.7718 16.968 5.49671C17.1243 5.41174 17.2237 5.25012 17.229 5.07228C17.2313 4.99536 17.2402 4.91207 17.2521 4.8034L17.2528 4.79721C17.2638 4.69708 17.2773 4.57456 17.2811 4.45014C17.2889 4.19741 17.2603 3.87307 17.0516 3.57078C16.8434 3.23698 16.5363 3.06549 16.2752 2.95987C16.1435 2.9066 16.0098 2.86484 15.897 2.82996L15.8772 2.82384C15.7667 2.7897 15.6775 2.76211 15.5952 2.7306L15.5792 2.72447L15.5628 2.71945C14.8985 2.51595 14.219 2.28636 13.5317 2.0541C12.4669 1.6943 11.383 1.32807 10.3069 1.04243L10.2949 1.0394ZM27.0228 24.1148C25.8677 25.7013 24.3545 26.9721 22.6638 27.9155C22.6081 27.9466 22.615 28.0299 22.6745 28.053C22.9167 28.1472 23.1829 28.2809 23.4139 28.5023L23.4373 28.5247L23.4576 28.5499C23.7322 28.8914 23.7611 29.2721 23.7349 29.5742C23.722 29.7225 23.6947 29.866 23.6707 29.9858L23.6578 30.0497C23.638 30.1478 23.6219 30.2275 23.611 30.3054C23.5857 30.4854 23.4647 30.6376 23.295 30.7028C23.2619 30.7155 23.2257 30.7298 23.187 30.7451C23.0231 30.8101 22.8142 30.8929 22.6081 30.9433C22.3436 31.008 22.0271 31.0368 21.6929 30.9237C20.5974 30.6436 19.5046 30.3404 18.4175 30.0389C17.9082 29.8976 17.3995 29.7565 16.8929 29.6184C16.3313 29.4722 15.7937 29.2526 15.2906 28.9718C15.1444 28.8901 15.0487 28.7407 15.0358 28.5737C14.988 27.9536 15.0701 27.2619 15.5095 26.6722C15.6036 26.5459 15.7517 26.4714 15.9091 26.471C18.4632 26.4645 21.0325 25.6949 22.9304 24.0215L22.9385 24.0144C25.1434 22.1538 26.386 19.2648 26.4191 16.3718C26.3754 15.6731 26.8005 14.8469 27.6536 14.706C28.449 14.5476 29.3264 15.1152 29.4152 15.9775L29.4164 15.9892L29.417 16.0009C29.5774 18.8793 28.6846 21.7766 27.0261 24.1101L27.0228 24.1148Z" fill="url(#paint0_linear_1012_616)"/>
<path fill-rule="evenodd" clip-rule="evenodd" d="M19.4718 4.19917C21.3078 2.25553 24.4566 1.88628 26.742 3.24702C27.831 3.93762 28.761 4.91885 29.214 6.14282C29.9303 7.96852 29.7045 10.1464 28.59 11.767C27.6498 13.1038 26.149 14.02 24.5284 14.244C22.9318 14.485 21.2685 14.0012 19.9983 13.0166C19.6137 12.6952 19.2667 12.3294 18.9487 11.9413C17.2017 9.68652 17.4444 6.20265 19.4718 4.19917Z" fill="url(#paint1_linear_1012_616)" stroke="url(#paint2_linear_1012_616)"/>
<path fill-rule="evenodd" clip-rule="evenodd" d="M4.26864 20.3291C6.10464 18.3855 9.25344 18.0162 11.5388 19.3769C12.6278 20.0675 13.5578 21.0488 14.0108 22.2727C14.7271 24.0984 14.5013 26.2763 13.3868 27.8969C12.4466 29.2337 10.9458 30.1499 9.32524 30.3739C7.72864 30.6149 6.06534 30.1311 4.79514 29.1465C4.41054 28.8251 4.06354 28.4593 3.74554 28.0712C1.99854 25.8165 2.24124 22.3326 4.26864 20.3291Z" fill="url(#paint3_linear_1012_616)" stroke="url(#paint4_linear_1012_616)"/>
<defs>
<linearGradient id="paint0_linear_1012_616" x1="16.1694" y1="31.0002" x2="16.1694" y2="0.999022" gradientUnits="userSpaceOnUse">
<stop stop-color="#A93AFF"/>
<stop offset="1" stop-color="#FF81FF"/>
</linearGradient>
<linearGradient id="paint1_linear_1012_616" x1="23.7029" y1="14.3052" x2="23.7029" y2="2.43457" gradientUnits="userSpaceOnUse">
<stop stop-color="#A93AFF"/>
<stop offset="1" stop-color="#FF81FF"/>
</linearGradient>
<linearGradient id="paint2_linear_1012_616" x1="23.7029" y1="14.3052" x2="23.7029" y2="2.43457" gradientUnits="userSpaceOnUse">
<stop stop-color="#A93AFF"/>
<stop offset="1" stop-color="#FF81FF"/>
</linearGradient>
<linearGradient id="paint3_linear_1012_616" x1="8.49974" y1="30.4351" x2="8.49974" y2="18.5645" gradientUnits="userSpaceOnUse">
<stop stop-color="#A93AFF"/>
<stop offset="1" stop-color="#FF81FF"/>
</linearGradient>
<linearGradient id="paint4_linear_1012_616" x1="8.49974" y1="30.4351" x2="8.49974" y2="18.5645" gradientUnits="userSpaceOnUse">
<stop stop-color="#A93AFF"/>
<stop offset="1" stop-color="#FF81FF"/>
</linearGradient>
</defs>
</svg>
