<?xml version="1.0" encoding="UTF-8" standalone="no"?>
<!-- Created with Inkscape (http://www.inkscape.org/) -->

<svg
   width="161.11099mm"
   height="168.681mm"
   viewBox="-2 -2 161.11121 168.68123"
   version="1.1"
   id="svg5"
   xml:space="preserve"
   inkscape:version="1.3 (0e150ed6c4, 2023-07-21)"
   sodipodi:docname="dcspy_black.svg"
   xmlns:inkscape="http://www.inkscape.org/namespaces/inkscape"
   xmlns:sodipodi="http://sodipodi.sourceforge.net/DTD/sodipodi-0.dtd"
   xmlns="http://www.w3.org/2000/svg"
   xmlns:svg="http://www.w3.org/2000/svg"
   xmlns:rdf="http://www.w3.org/1999/02/22-rdf-syntax-ns#"
   xmlns:cc="http://creativecommons.org/ns#"
   xmlns:dc="http://purl.org/dc/elements/1.1/"><title
     id="title24374">DCSpy White Logo</title><sodipodi:namedview
     id="namedview7"
     pagecolor="#ffffff"
     bordercolor="#000000"
     borderopacity="0.25"
     inkscape:showpageshadow="2"
     inkscape:pageopacity="0.0"
     inkscape:pagecheckerboard="true"
     inkscape:deskcolor="#d1d1d1"
     inkscape:document-units="mm"
     showgrid="false"
     inkscape:zoom="1.4142136"
     inkscape:cx="309.35921"
     inkscape:cy="293.80286"
     inkscape:window-width="2560"
     inkscape:window-height="1377"
     inkscape:window-x="-8"
     inkscape:window-y="-8"
     inkscape:window-maximized="1"
     inkscape:current-layer="layer1"
     showguides="true"><inkscape:grid
       type="xygrid"
       id="grid9"
       originx="-26.06988"
       originy="-59.559193"
       spacingy="1"
       spacingx="1"
       units="mm"
       visible="false" /></sodipodi:namedview><defs
     id="defs2" /><g
     inkscape:label="Layer 1"
     inkscape:groupmode="layer"
     id="layer1"
     transform="translate(-18.373129,-44.044939)"><path
       style="fill:#ffffff;stroke:none;stroke-width:0.131733"
       d="m 20.312935,180.96947 c 0.0482,-14.68385 0.0877,-31.34155 0.0877,-37.0171 v -10.3192 h 18.31095 18.31095 v 18.44269 18.44268 h 25.7539 25.753895 v -1.42994 c 0,-0.78646 -0.0607,-2.19436 -0.13482,-3.12867 -1.07128,-13.49724 -6.19241,-25.95606 -14.993445,-36.47636 -1.28067,-1.53086 -6.06491,-6.31509 -7.59576,-7.59577 -10.50405,-8.78741 -22.82272,-13.85918 -36.42431,-14.9964 -0.90707,-0.0758 -7.78526,-0.17532 -15.31401,-0.22149 l -13.66734,-0.0838 V 88.41824 70.25039 l 14.78708,0.05431 c 15.71038,0.05771 16.38109,0.0812 21.76895,0.76259 30.73844,3.887407 57.794965,21.639853 73.873775,48.4704 1.61686,2.69804 4.24264,7.75999 5.50088,10.60455 4.05696,9.17179 6.68303,18.79044 7.89668,28.92367 0.57183,4.77447 0.56886,4.64543 0.62281,27.09598 l 0.0517,21.50549 H 82.563855 20.225215 Z"
       id="path193" /><path
       style="fill:#ffffff;stroke:none;stroke-width:0.264583px;stroke-linecap:butt;stroke-linejoin:miter;stroke-opacity:1"
       d="m 142.49239,53.536246 c 1.56545,-1.559939 3.1309,-3.119877 4.09005,-4.018381 0.95914,-0.898505 1.31191,-1.135523 1.65094,-1.331212 0.33903,-0.19569 0.66424,-0.350027 1.03635,-0.474046 0.37212,-0.124019 0.79104,-0.217725 1.23479,-0.29213 0.44375,-0.07441 0.91228,-0.129528 1.35052,-0.140526 0.43825,-0.011 0.84614,0.02207 1.22924,0.06618 0.3831,0.04411 0.74139,0.09923 1.13828,0.198481 0.39689,0.09925 0.83234,0.242563 1.32844,0.432751 0.4961,0.190188 1.05281,0.427203 1.52135,0.653226 0.46854,0.226022 0.84887,0.440991 1.34772,0.738657 0.49885,0.297667 1.1162,0.677999 1.68395,1.080412 0.56774,0.402413 1.08587,0.826839 1.58197,1.231985 0.4961,0.405147 0.97014,0.790986 1.43867,1.212686 0.46852,0.421699 0.93153,0.879198 1.38078,1.317417 0.44925,0.438219 0.8847,0.857133 1.20991,1.187876 0.3252,0.330742 0.54017,0.573272 0.83195,0.909255 0.29178,0.335983 0.66034,0.765387 1.02976,1.22566 0.36942,0.460272 0.73969,0.951369 1.08073,1.424946 0.34105,0.473576 0.65285,0.929598 0.95881,1.416818 0.30596,0.487219 0.60607,1.005603 0.84577,1.451895 0.23969,0.446292 0.41898,0.820461 0.58142,1.201421 0.16244,0.38096 0.30805,0.768691 0.44147,1.188559 0.13343,0.419867 0.25469,0.871852 0.34149,1.254941 0.0868,0.383089 0.13917,0.697281 0.1736,1.025245 0.0344,0.327965 0.051,0.66971 0.0537,1.01008 0.003,0.340371 -0.008,0.679359 -0.0538,1.138238 -0.0455,0.458878 -0.12541,1.037639 -0.24945,1.546099 -0.12404,0.508459 -0.29216,0.946668 -0.46441,1.350422 -0.17226,0.403753 -0.34864,0.773059 -0.5636,1.094093 -0.21495,0.321035 -0.46851,0.593879 -0.85022,0.982484 -0.38172,0.388605 -0.89158,0.892961 -1.47175,1.477258 -0.58016,0.584297 -1.23058,1.248496 -1.88101,1.91271 1.1796,1.237478 2.35946,2.475231 3.12399,3.418104 0.76452,0.942874 1.11405,1.591074 1.38429,2.184127 0.27023,0.593053 0.46122,1.130921 0.59759,1.789623 0.13638,0.658702 0.21823,1.438223 0.2143,2.196301 -0.004,0.758078 -0.0936,1.494722 -0.22221,2.204086 -0.12863,0.709365 -0.29623,1.391446 -0.45993,1.902008 -0.16371,0.510561 -0.32351,0.849657 -0.58187,1.352675 -0.25835,0.503017 -0.61525,1.169951 -1.039,1.878241 -0.42375,0.708291 -0.91432,1.457928 -1.37182,2.079408 -0.4575,0.621479 -0.88192,1.114805 -1.32702,1.583329 -0.4451,0.468524 -0.91087,0.912244 -1.55443,1.551668 -0.64356,0.639423 -1.46485,1.474494 -2.10977,2.115274 -0.64492,0.64079 -1.11345,1.08727 -1.60401,1.50067 -0.49057,0.4134 -1.00319,0.79373 -1.63983,1.1906 -0.63663,0.39687 -1.39729,0.81027 -2.08353,1.12723 -0.68625,0.31695 -1.29809,0.53743 -1.70873,0.68075 -0.41065,0.14331 -0.62011,0.20946 -1.03351,0.30042 -0.4134,0.091 -1.03075,0.20671 -1.67841,0.27838 -0.64766,0.0717 -1.32564,0.0992 -1.98984,0.0579 -0.66419,-0.0413 -1.31461,-0.15155 -1.93473,-0.30586 -0.62011,-0.15431 -1.2099,-0.35274 -1.76388,-0.59525 -0.55398,-0.2425 -1.07211,-0.52913 -1.50207,-0.80196 -0.42996,-0.27283 -0.77171,-0.53189 -1.40012,-1.1079 -0.62841,-0.57601 -1.54367,-1.46923 -2.45869,-2.3622 -1.47174,1.47175 -2.94349,2.94349 -3.94943,3.85849 -1.00594,0.91501 -1.54612,1.27329 -2.04495,1.55165 -0.49882,0.27836 -0.95632,0.47679 -1.42755,0.59532 -0.47124,0.11853 -0.9563,0.15711 -1.34765,0.17367 -0.39135,0.0165 -0.68901,0.011 -1.10793,-0.008 -0.41892,-0.0193 -0.95911,-0.0523 -1.58472,-0.17909 -0.62562,-0.12673 -1.33667,-0.34721 -2.09736,-0.67516 -0.76068,-0.32794 -1.57095,-0.76339 -2.40882,-1.27601 -0.83786,-0.51262 -1.70325,-1.10241 -2.56592,-1.77488 -0.86268,-0.67247 -1.72255,-1.42762 -2.62105,-2.24893 -0.89849,-0.82132 -1.83553,-1.70875 -2.60174,-2.508005 -0.76622,-0.799256 -1.36152,-1.510309 -1.88243,-2.182791 -0.52092,-0.672482 -0.9674,-1.30637 -1.43044,-2.056024 -0.46305,-0.749654 -0.94259,-1.615041 -1.2899,-2.353674 -0.3473,-0.738634 -0.56226,-1.35047 -0.74143,-1.99816 -0.17917,-0.64769 -0.32249,-1.331184 -0.41346,-1.954075 -0.091,-0.622891 -0.12956,-1.185121 -0.0993,-1.783229 0.0303,-0.598108 0.12951,-1.231991 0.2425,-1.733631 0.11299,-0.50164 0.23976,-0.87095 0.44923,-1.303696 0.20947,-0.432747 0.50161,-0.92883 0.77172,-1.328488 0.27011,-0.399658 0.51815,-0.70282 0.84063,-1.039084 0.32248,-0.336264 0.71935,-0.705574 1.27607,-1.251279 0.55673,-0.545706 1.2733,-1.267784 1.98988,-1.989876 -1.17409,-1.218186 -2.34791,-2.436102 -3.07555,-3.276689 -0.72765,-0.840586 -1.00876,-1.303601 -1.2789,-1.879624 -0.27013,-0.576023 -0.5292,-1.265024 -0.70287,-1.981625 -0.17368,-0.7166 -0.26187,-1.460728 -0.28395,-2.155291 -0.0221,-0.694562 0.022,-1.339471 0.11848,-1.962378 0.0964,-0.622908 0.24527,-1.223719 0.44922,-1.871425 0.20395,-0.647705 0.46302,-1.342221 0.79375,-2.042303 0.33074,-0.700081 0.73311,-1.405623 1.22646,-2.199395 0.49335,-0.793772 1.07762,-1.675697 1.62886,-2.408841 0.55123,-0.733145 1.06937,-1.317425 1.72533,-1.99268 0.65596,-0.675254 1.4497,-1.441431 2.37301,-2.251735 0.9233,-0.810304 1.97611,-1.664669 2.91045,-2.337169 0.93434,-0.672499 1.75012,-1.163071 2.52462,-1.557197 0.77449,-0.394127 1.50759,-0.691776 2.17184,-0.912259 0.66425,-0.220483 1.25955,-0.363795 1.82457,-0.460247 0.56502,-0.09645 1.09969,-0.14606 1.61786,-0.159822 0.51816,-0.01376 1.01976,0.0083 1.60958,0.07721 0.58982,0.06892 1.26781,0.184677 1.85762,0.33354 0.58981,0.148862 1.0914,0.330758 1.54616,0.540257 0.45476,0.209499 0.86265,0.446516 1.39732,0.857209 0.53466,0.410694 1.19611,0.994967 1.83828,1.59305 0.64216,0.598083 1.26476,1.209658 1.88763,1.821507 z"
       id="path6763"
       transform="rotate(-45,142.94197,80.563587)" /><path
       style="fill:#3775a8;fill-opacity:1;stroke:none;stroke-width:0.264583px;stroke-linecap:butt;stroke-linejoin:miter;stroke-opacity:1"
       d="m 122.17969,56.729703 c 0.55738,-0.504757 1.67211,-1.514254 2.54912,-2.229499 0.87701,-0.715244 1.51622,-1.136186 2.16716,-1.51427 0.65094,-0.378084 1.31353,-0.713276 1.91965,-0.98027 0.60611,-0.266993 1.15567,-0.46577 1.64877,-0.598281 0.4931,-0.132512 0.92963,-0.198772 1.42856,-0.239684 0.49892,-0.04091 1.06018,-0.0565 1.59809,-0.0038 0.53791,0.05266 1.0524,0.173485 1.43632,0.257278 0.38392,0.08379 0.63726,0.130563 1.05822,0.331362 0.42096,0.200799 1.0095,0.555481 1.50644,0.902405 0.49695,0.346924 0.9023,0.686016 1.33104,1.093346 0.42873,0.407329 0.88085,0.882836 1.80267,1.837781 0.92181,0.954944 2.31326,2.389264 4.35637,4.435821 2.04311,2.046557 4.73747,4.70496 7.43216,7.363682 0,0 1.26504,-1.289844 1.26504,-1.289844 -1.66743,-1.678451 -3.33459,-3.356637 -4.97998,-5.008921 -1.6454,-1.652285 -3.26896,-3.278601 -4.89229,-4.904686 1.68669,-1.676001 3.37338,-3.352005 4.36486,-4.306951 0.99148,-0.954947 1.28769,-1.188799 1.60347,-1.360311 0.31578,-0.171511 0.65098,-0.280646 1.03884,-0.352737 0.38787,-0.07209 0.82829,-0.107168 1.26876,-0.08959 0.44047,0.01757 0.8809,0.08773 1.2395,0.154003 0.35859,0.06627 0.63532,0.128634 1.00756,0.25729 0.37224,0.128657 0.83995,0.32354 1.32911,0.55547 0.48916,0.23193 0.99975,0.500866 1.53958,0.832194 0.53983,0.331328 1.10888,0.724985 1.75784,1.21611 0.64897,0.491124 1.37782,1.079661 2.08524,1.716954 0.70742,0.637293 1.3934,1.323273 2.03263,1.966397 0.63922,0.643125 1.23166,1.243359 1.76368,1.841672 0.53202,0.598314 1.00363,1.194642 1.43432,1.777359 0.43068,0.582716 0.82044,1.151766 1.1108,1.607804 0.29037,0.456038 0.48135,0.799025 0.68986,1.24142 0.2085,0.442395 0.43457,0.984161 0.62164,1.49671 0.18707,0.512549 0.33518,0.995851 0.42868,1.46356 0.0935,0.467708 0.13249,0.919832 0.14416,1.381697 0.0117,0.461865 -0.004,0.933474 -0.0449,1.286177 -0.041,0.352704 -0.10721,0.586558 -0.23584,0.937334 -0.12863,0.350775 -0.31961,0.81849 -0.51253,1.171178 -0.19292,0.352689 -0.3878,0.590442 -0.76782,0.995794 -0.38002,0.405353 -0.94517,0.978299 -2.45944,2.490623 -1.51427,1.512324 -3.97755,3.963914 -5.37877,5.357338 -1.40122,1.393424 -1.74032,1.728617 -2.0638,2.003389 -0.32349,0.274772 -0.6314,0.48914 -0.92372,0.68987 -0.29233,0.200731 -0.56906,0.387816 -0.84381,0.53982 -0.27476,0.152003 -0.54759,0.268929 -0.83989,0.368325 -0.2923,0.0994 -0.60411,0.181245 -0.95683,0.237776 -0.35271,0.05653 -0.74637,0.08771 -1.11662,0.07021 -0.37025,-0.0175 -0.71714,-0.08376 -1.08742,-0.167552 -0.37028,-0.08379 -0.76394,-0.185128 -1.13617,-0.303986 -0.37223,-0.118858 -0.72301,-0.255273 -1.0816,-0.424798 -0.35859,-0.169526 -0.72497,-0.372204 -1.13229,-0.652809 -0.40733,-0.280606 -0.85556,-0.639189 -1.55131,-1.286198 -0.69576,-0.647009 -1.63898,-1.582434 -2.93692,-2.880379 -1.29795,-1.297944 -2.95053,-2.958321 -4.1023,-4.106195 -1.15177,-1.147875 -1.80267,-1.783184 -2.28209,-2.254806 -0.47942,-0.471621 -0.78733,-0.779531 -1.15174,-1.073838 -0.36442,-0.294307 -0.78536,-0.574934 -1.26088,-0.840007 -0.47552,-0.265073 -1.00559,-0.514519 -1.43824,-0.676314 -0.43265,-0.161796 -0.76785,-0.235852 -1.16349,-0.269017 -0.39565,-0.03317 -0.85166,-0.02537 -1.26678,-4.4e-5 -0.41512,0.02532 -0.78929,0.0682 -1.21615,0.192912 -0.42685,0.124714 -0.90625,0.331286 -1.32721,0.518378 -0.42096,0.187091 -0.78344,0.354687 -1.09334,0.53984 -0.30991,0.185153 -0.56716,0.387833 -0.77374,0.555439 -0.20659,0.167607 -0.36249,0.300124 -0.56128,0.469675 -0.19878,0.169552 -0.44043,0.376124 -1.36616,1.282359 -0.92573,0.906236 -2.53544,2.512049 -4.14518,4.117893 -1.20828,-1.180997 -2.41629,-2.361729 -3.16468,-3.166585 -0.74839,-0.804856 -1.03681,-1.233592 -1.28045,-1.677924 -0.24364,-0.444331 -0.44242,-0.904249 -0.58081,-1.262841 -0.13839,-0.358592 -0.21634,-0.615832 -0.25926,-0.853622 -0.0429,-0.237789 -0.0507,-0.456038 -0.0507,-0.691859 -10e-6,-0.23582 0.008,-0.489166 0.0253,-0.836067 0.0175,-0.346901 0.0448,-0.787334 0.11298,-1.214166 0.0682,-0.426832 0.17733,-0.839979 0.35077,-1.358397 0.17345,-0.518419 0.4112,-1.142033 0.63142,-1.642913 0.22022,-0.50088 0.4229,-0.878948 0.72108,-1.356438 0.29819,-0.477491 0.69184,-1.054336 1.06603,-1.578585 0.37418,-0.52425 0.72887,-0.995858 1.07382,-1.428515 0.34496,-0.432657 0.68015,-0.826313 0.99977,-1.181015 0.31962,-0.354702 0.62363,-0.670406 0.77565,-0.828266 0.15201,-0.15786 0.15209,-0.157861 0.70946,-0.662617 z"
       id="path7493"
       transform="rotate(-45,142.94197,80.563587)" /><path
       style="fill:#ffffff;stroke:none;stroke-width:0.264583px;stroke-linecap:butt;stroke-linejoin:miter;stroke-opacity:1"
       d="m 152.12666,53.638842 c 0.10829,-0.0059 0.3246,-0.01755 0.49906,-0.0087 0.17445,0.0088 0.30697,0.03805 0.43463,0.0751 0.12765,0.03705 0.25042,0.08187 0.37418,0.134511 0.12375,0.05264 0.24847,0.113052 0.38002,0.191035 0.13154,0.07798 0.2699,0.173474 0.37606,0.27193 0.10617,0.09846 0.18023,0.199805 0.25723,0.297247 0.077,0.09744 0.15689,0.19097 0.2231,0.300127 0.0662,0.109157 0.11882,0.233874 0.15971,0.386851 0.0409,0.152976 0.0701,0.33421 0.0857,0.502771 0.0156,0.168561 0.0176,0.324465 0.001,0.490086 -0.0166,0.165622 -0.0516,0.341018 -0.0867,0.487162 -0.0351,0.146145 -0.0702,0.263079 -0.12959,0.385796 -0.0594,0.122718 -0.14324,0.251355 -0.24748,0.382877 -0.10425,0.131521 -0.22897,0.265986 -0.34588,0.37315 -0.1169,0.107164 -0.22604,0.187067 -0.35562,0.269886 -0.12958,0.08282 -0.27963,0.168564 -0.44034,0.222168 -0.16072,0.0536 -0.33221,0.07504 -0.49103,0.09258 -0.15883,0.01754 -0.305,0.03119 -0.4677,0.02829 -0.16269,-0.0029 -0.34198,-0.02238 -0.51445,-0.06521 -0.17246,-0.04283 -0.33811,-0.109085 -0.51545,-0.196756 -0.17735,-0.08767 -0.36639,-0.196808 -0.52234,-0.331221 -0.15595,-0.134414 -0.27873,-0.294218 -0.38984,-0.473496 -0.11112,-0.179278 -0.21051,-0.378069 -0.28461,-0.571012 -0.0741,-0.192944 -0.12282,-0.380024 -0.13651,-0.574947 -0.0137,-0.194923 0.008,-0.397594 0.0418,-0.582761 0.0341,-0.185167 0.0809,-0.352772 0.15005,-0.517505 0.0692,-0.164732 0.16077,-0.326468 0.26603,-0.475589 0.10526,-0.149122 0.22413,-0.285534 0.34305,-0.393725 0.11892,-0.10819 0.2378,-0.188092 0.36644,-0.266052 0.12864,-0.07796 0.26701,-0.153966 0.38297,-0.214379 0.11596,-0.06041 0.20951,-0.105239 0.28552,-0.138365 0.076,-0.03312 0.1345,-0.05457 0.16366,-0.06526 0.0292,-0.01069 0.029,-0.0107 0.1373,-0.01656 z"
       id="path7497"
       transform="rotate(-45,142.94197,80.563587)" /><path
       style="fill:#ffd94a;fill-opacity:1;stroke:none;stroke-width:0.264583px;stroke-linecap:butt;stroke-linejoin:miter;stroke-opacity:1"
       d="m 154.12323,103.47261 c -0.13437,0.0273 -0.40331,0.0818 -0.63716,0.11888 -0.23385,0.0371 -0.43261,0.0566 -0.64697,0.0585 -0.21435,0.002 -0.44431,-0.0136 -0.65676,-0.0117 -0.21244,0.002 -0.40732,0.0214 -0.64701,0.0117 -0.23968,-0.01 -0.52421,-0.0487 -0.82822,-0.11297 -0.30402,-0.0643 -0.62751,-0.15394 -0.92374,-0.26109 -0.29623,-0.10716 -0.56516,-0.23188 -0.86528,-0.36247 -0.30013,-0.13058 -0.63142,-0.267 -0.89063,-0.41116 -0.25922,-0.14417 -0.4463,-0.29618 -0.72109,-0.51055 -0.27479,-0.21438 -0.63726,-0.49111 -1.14788,-0.96272 -0.51063,-0.4716 -1.16932,-1.138089 -2.28602,-2.248945 -1.1167,-1.110855 -2.69133,-2.665997 -4.2855,-4.266008 -1.59417,-1.600011 -3.20777,-3.2448 -4.39463,-4.456986 -1.18685,-1.212186 -1.94714,-1.991977 -2.70719,-2.771513 0,0 -1.3447,1.368084 -1.3447,1.368084 1.20828,1.196589 2.41683,2.393443 4.06362,4.048031 1.64679,1.654588 3.73174,3.76682 5.817,5.879363 -1.63703,1.664304 -3.27405,3.328614 -4.14712,4.209484 -0.87308,0.88086 -0.98221,0.97831 -1.14978,1.08937 -0.16757,0.11107 -0.39362,0.23579 -0.65863,0.34298 -0.265,0.10719 -0.56901,0.19683 -0.83599,0.26505 -0.26697,0.0682 -0.49694,0.11499 -0.72494,0.15008 -0.228,0.0351 -0.45405,0.0585 -0.69178,0.0527 -0.23774,-0.006 -0.48719,-0.0409 -0.77367,-0.0799 -0.28649,-0.039 -0.60999,-0.0818 -0.94908,-0.1734 -0.33909,-0.0915 -0.69377,-0.23187 -1.11083,-0.41115 -0.41706,-0.17929 -0.89646,-0.39755 -1.33301,-0.62555 -0.43654,-0.228 -0.83021,-0.46575 -1.29014,-0.76392 -0.45993,-0.29817 -0.98611,-0.65675 -1.5162,-1.03482 -0.5301,-0.37807 -1.06406,-0.77563 -1.66043,-1.28816 -0.59636,-0.512527 -1.25506,-1.140043 -1.81828,-1.683771 -0.56322,-0.543729 -1.03093,-1.003645 -1.41487,-1.410943 -0.38394,-0.407298 -0.68405,-0.761981 -1.13425,-1.299868 -0.45019,-0.537886 -1.05042,-1.258941 -1.52402,-1.917642 -0.4736,-0.6587 -0.82048,-1.255036 -1.14206,-1.851384 -0.32157,-0.596348 -0.61779,-1.192681 -0.8244,-1.681845 -0.20661,-0.489164 -0.32353,-0.871128 -0.42293,-1.21608 -0.0994,-0.344952 -0.18125,-0.652861 -0.24947,-0.958836 -0.0682,-0.305975 -0.1228,-0.609986 -0.13063,-0.976404 -0.008,-0.366417 0.0311,-0.795155 0.0838,-1.204427 0.0526,-0.409271 0.11888,-0.799036 0.21826,-1.136235 0.0994,-0.3372 0.23191,-0.621726 0.38587,-0.900437 0.15397,-0.278711 0.32936,-0.551547 0.55936,-0.816631 0.22999,-0.265084 0.51451,-0.522323 0.97249,-0.976402 0.45797,-0.454079 1.08938,-1.104978 1.72471,-1.757848 0.63533,-0.65287 1.27454,-1.307668 1.97418,-2.015106 0.69964,-0.707438 1.45967,-1.467469 2.46334,-2.457494 1.00367,-0.990024 2.2509,-2.209971 2.99538,-2.911569 0.74448,-0.701598 0.98613,-0.884784 1.19079,-1.021213 0.20465,-0.13643 0.37225,-0.226077 0.57494,-0.331316 0.20268,-0.105239 0.44044,-0.226069 0.68602,-0.331307 0.24558,-0.105239 0.49892,-0.194882 0.75621,-0.257235 0.25729,-0.06235 0.51842,-0.09743 0.80491,-0.130558 0.28649,-0.03313 0.5983,-0.06431 0.91599,-0.06428 0.31769,2.6e-5 0.64119,0.03121 0.95887,0.08775 0.31768,0.05655 0.62948,0.138393 0.9374,0.237805 0.30792,0.09941 0.61194,0.21634 0.93935,0.354721 0.3274,0.138382 0.67819,0.298186 0.97441,0.45802 0.29622,0.159835 0.53787,0.319635 0.76393,0.483355 0.22606,0.163719 0.43654,0.331316 0.68403,0.549601 0.2475,0.218285 0.53202,0.487217 0.86332,0.818533 0.3313,0.331316 0.70937,0.724971 1.18099,1.202438 0.47163,0.477468 1.03679,1.038725 1.75202,1.753957 0.71523,0.715232 1.5805,1.584399 2.70499,2.714741 1.1245,1.130341 2.50815,2.521788 3.38904,3.363671 0.8809,0.841883 1.25897,1.134205 1.60977,1.37779 0.3508,0.243585 0.6743,0.438463 0.98807,0.61775 0.31377,0.179288 0.61778,0.342988 0.9257,0.473526 0.30792,0.130537 0.61973,0.227977 0.97636,0.298101 0.35662,0.07012 0.75807,0.112998 1.12446,0.138322 0.36638,0.02532 0.69767,0.03312 1.00166,0.01166 0.30399,-0.02146 0.58072,-0.07213 0.91006,-0.157887 0.32933,-0.08576 0.7113,-0.206585 1.10104,-0.37029 0.38973,-0.163705 0.78729,-0.370279 1.15561,-0.578801 0.36832,-0.208523 0.70741,-0.418992 1.10105,-0.734691 0.39364,-0.315699 0.84186,-0.736638 1.16927,-1.050398 0.3274,-0.313761 0.53397,-0.520337 0.77758,-0.76784 0.2436,-0.247502 0.52423,-0.535926 1.19854,-1.223878 0.67431,-0.687953 1.74226,-1.775387 2.81022,-2.86284 0.53788,0.549573 1.07602,1.099416 1.74059,1.765924 0.66456,0.666508 1.45577,1.449924 1.93125,1.978087 0.47548,0.528164 0.63528,0.800993 0.79507,1.12256 0.15978,0.321568 0.31958,0.691841 0.44623,1.038734 0.12666,0.346894 0.2202,0.670397 0.27863,1.01338 0.0584,0.342984 0.0818,0.705454 0.0955,1.073783 0.0136,0.368329 0.0175,0.742501 -0.0156,1.116654 -0.0332,0.374152 -0.1033,0.74832 -0.18516,1.087405 -0.0819,0.339084 -0.1754,0.643092 -0.2436,0.896458 -0.0682,0.253365 -0.11109,0.456043 -0.20464,0.721051 -0.0935,0.265007 -0.23776,0.592405 -0.40731,0.958784 -0.16955,0.366379 -0.36443,0.771732 -0.5788,1.169281 -0.21437,0.39755 -0.44823,0.787311 -0.71912,1.196556 -0.27088,0.409244 -0.5788,0.837982 -0.95102,1.290099 -0.37222,0.452118 -0.80875,0.927626 -1.20436,1.346627 -0.39562,0.419001 -0.7503,0.781479 -1.06017,1.104994 -0.30987,0.323514 -0.5749,0.608035 -0.97051,0.9939 -0.39562,0.385866 -0.92179,0.873068 -1.34275,1.266737 -0.42095,0.393668 -0.73666,0.693791 -1.10109,1.013391 -0.36442,0.3196 -0.77757,0.65869 -1.1907,0.95101 -0.41314,0.29232 -0.82628,0.53787 -1.20239,0.74054 -0.37611,0.20268 -0.7152,0.36248 -1.05431,0.52424 -0.3391,0.16175 -0.67819,0.32545 -0.97634,0.45018 -0.29815,0.12473 -0.55539,0.21048 -0.78923,0.27479 -0.23384,0.0643 -0.44432,0.1072 -0.54966,0.12865 -0.10534,0.0215 -0.10539,0.0214 -0.23975,0.0486 z"
       id="path7505"
       transform="rotate(-45,142.94197,80.563587)" /><path
       style="fill:#ffffff;stroke:none;stroke-width:0.264583px;stroke-linecap:butt;stroke-linejoin:miter;stroke-opacity:1"
       d="m 131.63905,96.249893 c 0.0938,-0.02483 0.28121,-0.07444 0.45627,-0.09646 0.17506,-0.02202 0.33766,-0.01651 0.49201,-0.0082 0.15435,0.0083 0.30042,0.0193 0.46856,0.06897 0.16813,0.04967 0.3583,0.137868 0.52366,0.234368 0.16535,0.0965 0.3059,0.201226 0.44369,0.328037 0.13778,0.126811 0.27283,0.275634 0.38854,0.434122 0.11572,0.158487 0.21219,0.326616 0.27689,0.48922 0.0647,0.162604 0.0978,0.319705 0.11703,0.520884 0.0193,0.20118 0.0248,0.446464 0.007,0.653131 -0.018,0.206668 -0.0593,0.374774 -0.1213,0.52906 -0.062,0.154286 -0.1447,0.294855 -0.23427,0.436783 -0.0896,0.141929 -0.18603,0.285242 -0.299,0.411982 -0.11297,0.12674 -0.2425,0.23698 -0.39268,0.34307 -0.15018,0.1061 -0.32105,0.20807 -0.49049,0.27698 -0.16945,0.0689 -0.33755,0.10473 -0.53596,0.11854 -0.19841,0.0138 -0.42716,0.006 -0.61317,-0.0179 -0.18602,-0.0234 -0.32933,-0.062 -0.49607,-0.10607 -0.16674,-0.0441 -0.35691,-0.0937 -0.53058,-0.20386 -0.17367,-0.11014 -0.33076,-0.28102 -0.48098,-0.45327 -0.15021,-0.17225 -0.29353,-0.345878 -0.39144,-0.536035 -0.0979,-0.190157 -0.15029,-0.396861 -0.18615,-0.617361 -0.0359,-0.2205 -0.0552,-0.454762 -0.0511,-0.635329 0.004,-0.180566 0.0317,-0.307348 0.0703,-0.441046 0.0386,-0.133698 0.0882,-0.274253 0.1571,-0.40798 0.0689,-0.133728 0.1571,-0.260484 0.23427,-0.367975 0.0772,-0.107491 0.14332,-0.195692 0.2343,-0.292181 0.091,-0.09649 0.20673,-0.201222 0.31699,-0.289429 0.11027,-0.08821 0.21499,-0.159863 0.3046,-0.214996 0.0896,-0.05513 0.164,-0.09371 0.20115,-0.112977 0.0372,-0.01927 0.0372,-0.01927 0.13102,-0.0441 z"
       id="path7501"
       transform="rotate(-45,142.94197,80.563587)" /></g><metadata
     id="metadata24372"><rdf:RDF><cc:Work
         rdf:about=""><dc:title>DCSpy White Logo</dc:title></cc:Work></rdf:RDF></metadata></svg>
